<?xml version="1.0" encoding="UTF-8" standalone="no"?>
<!-- Gegenereerd door Microsoft Visio, SVG Export Tekening1.svg Page-1 -->

<svg
   xmlns:v="http://schemas.microsoft.com/visio/2003/SVGExtensions/"
   xmlns:dc="http://purl.org/dc/elements/1.1/"
   xmlns:cc="http://creativecommons.org/ns#"
   xmlns:rdf="http://www.w3.org/1999/02/22-rdf-syntax-ns#"
   xmlns:svg="http://www.w3.org/2000/svg"
   xmlns="http://www.w3.org/2000/svg"
   xmlns:sodipodi="http://sodipodi.sourceforge.net/DTD/sodipodi-0.dtd"
   xmlns:inkscape="http://www.inkscape.org/namespaces/inkscape"
   width="8.26772in"
   height="11.6929in"
   viewBox="0 0 595.276 841.89"
   xml:space="preserve"
   color-interpolation-filters="sRGB"
   class="st4"
   id="svg2"
   version="1.1"
   inkscape:version="0.91 r13725"
   sodipodi:docname="Tekening1.svg"><metadata
     id="metadata549"><rdf:RDF><cc:Work
         rdf:about=""><dc:format>image/svg+xml</dc:format><dc:type
           rdf:resource="http://purl.org/dc/dcmitype/StillImage" /></cc:Work></rdf:RDF></metadata><defs
     id="defs547" /><sodipodi:namedview
     pagecolor="#ffffff"
     bordercolor="#666666"
     borderopacity="1"
     objecttolerance="10"
     gridtolerance="10"
     guidetolerance="10"
     inkscape:pageopacity="0"
     inkscape:pageshadow="2"
     inkscape:window-width="2048"
     inkscape:window-height="1089"
     id="namedview545"
     showgrid="false"
     inkscape:zoom="0.8970306"
     inkscape:cx="260.2986"
     inkscape:cy="562.48462"
     inkscape:window-x="-8"
     inkscape:window-y="-8"
     inkscape:window-maximized="1"
     inkscape:current-layer="svg2" /><v:documentProperties
     v:langID="1043"
     v:metric="true"
     v:viewMarkup="false" /><style
     type="text/css"
     id="style4"><![CDATA[
		.st1 {fill:none}
		.st2 {stroke:#260700;stroke-linecap:round;stroke-linejoin:round;stroke-width:0.75}
		.st3 {fill:none;stroke:#260700;stroke-linecap:round;stroke-linejoin:round;stroke-width:0.75}
		.st4 {fill:none;fill-rule:evenodd;font-size:12px;overflow:visible;stroke-linecap:square;stroke-miterlimit:3}
	]]></style><path
     style="fill:#a14102;fill-opacity:1"
     d="m 411.64657,805.02958 c -11.89926,-1.0218 -26.34139,-3.48014 -39.01961,-6.64195 -10.704,-2.66944 -30.34537,-9.14075 -31.62381,-10.41919 -0.39008,-0.39008 0.28426,-1.84974 1.56115,-3.37925 l 2.24785,-2.69256 1.00838,0.35751 c 24.31605,8.62107 56.45034,13.59195 84.0718,13.67976 21.62763,0.0687 47.76066,-5.74739 67.60428,-12.35451 48.46255,-16.13604 79.55631,-40.7113 102.13861,-86.70454 13.22132,-26.9278 19.25833,-52.97947 19.22067,-82.94355 -0.0382,-30.42035 -5.86908,-55.60699 -19.16147,-82.76887 -11.87984,-24.27546 -26.20081,-42.94757 -46.00615,-59.98422 -32.18071,-27.68198 -70.01523,-42.71619 -115.04328,-45.71448 -4.22713,-0.28147 -7.68598,-0.73562 -7.68634,-1.00923 -3.7e-4,-0.2736 -0.88688,-9.1882 -1.97003,-19.8102 -2.49126,-24.43076 -2.49256,-23.64825 0.0392,-23.64825 2.69932,0 6.41065,-2.00033 7.50493,-4.04501 1.14246,-2.13472 1.14246,-6.32904 0,-8.46377 -1.15836,-2.16434 -4.85337,-4.045 -7.9474,-4.045 -2.4283,0 -2.44799,-0.0327 -2.01371,-3.35017 0.2412,-1.84259 0.98315,-10.44464 1.64878,-19.11566 0.66562,-8.67103 1.40312,-16.97289 1.63888,-18.44859 l 0.42866,-2.68308 12.35687,0.50503 c 113.05878,4.6208 208.71082,89.23114 227.83626,201.53574 5.23723,30.75309 4.12113,66.00545 -3.0323,95.77541 -7.00233,29.14115 -18.27191,54.92781 -34.73122,79.47073 -10.37075,15.46409 -18.59342,25.34182 -31.99113,38.43028 -38.4282,37.54114 -85.46813,60.26415 -139.41853,67.34718 -11.64048,1.52826 -37.98924,2.12273 -49.66132,1.12044 z"
     id="path4677"
     inkscape:connector-curvature="0"
     transform="matrix(0.80000122,0,0,0.80000122,-3.906256e-4,0)"
     sodipodi:nodetypes="cssscsssssssscssscsssscsssssscc" /><path
     style="fill:#636466;fill-opacity:1"
     d="m 80.126651,758.77821 c -1.400323,-4.22788 -2.709266,-8.13046 -2.908762,-8.6724 -0.276991,-0.75246 1.796241,-0.98535 8.771759,-0.98535 8.837518,0 9.146524,-0.0577 9.504924,-1.77362 0.350581,-1.67852 18.612948,-211.93074 18.589348,-214.01665 -0.008,-0.74676 -3.0651,-0.98535 -12.62355,-0.98535 -6.936824,0 -12.612404,-0.13844 -12.612404,-0.30764 0,-0.16921 -4.072371,-11.40908 -9.049712,-24.9775 -4.977342,-13.56841 -8.967984,-24.72745 -8.868094,-24.79786 0.542352,-0.38231 38.17702,3.32292 39.00416,3.84006 0.54194,0.33882 0.98535,1.18681 0.98535,1.88443 0,0.69761 0.39237,3.52155 0.87193,6.27541 l 0.87194,5.00703 16.27304,-0.21281 16.27305,-0.2128 1.20318,-6.3062 1.20319,-6.3062 12.33518,-0.21679 c 14.03876,-0.24672 12.55188,-1.0814 14.0772,7.90247 l 0.9034,5.32085 16.0322,0 c 8.8177,0 16.22975,-0.31965 16.47121,-0.71035 0.24146,-0.39069 0.85742,-3.40157 1.36879,-6.69085 0.90328,-5.81012 0.99877,-5.99164 3.35181,-6.37118 3.30324,-0.53282 30.71971,-2.78139 33.91305,-2.78139 l 2.57046,0 -5.00901,14.38602 c -2.75495,7.91231 -6.65194,19.08611 -8.65998,24.83066 l -3.65097,10.44464 -12.5092,0 c -9.45873,0 -12.51977,0.24029 -12.55255,0.98535 -0.0238,0.54194 4.14417,49.31619 9.26223,108.38724 l 9.30558,107.40189 79.81284,5.8e-4 c 65.01469,4.6e-4 79.81284,-0.18968 79.81284,-1.02551 0,-0.56434 4.05901,-47.83128 9.02002,-105.03764 4.96102,-57.20636 9.12836,-105.43046 9.26077,-107.16467 l 0.24075,-3.1531 -12.61038,-0.39414 -12.61039,-0.39413 -9.1487,-25.04465 c -6.71581,-18.38458 -8.8122,-24.95412 -7.88331,-24.70425 0.69598,0.18721 9.33834,0.97385 19.20525,1.74808 9.86692,0.77423 18.2736,1.61397 18.68152,1.86607 0.40792,0.25211 1.21315,3.28636 1.7894,6.74279 l 1.04773,6.28441 16.27619,0.21288 c 18.18,0.23779 16.52138,0.77992 17.53302,-5.73081 0.26946,-1.7342 0.68334,-4.12859 0.91973,-5.32085 l 0.42982,-2.16776 12.42857,0 12.42857,0 1.10654,6.50327 1.10654,6.50327 16.2906,0.21286 16.29061,0.21286 0.42137,-2.18355 c 2.17246,-11.25771 2.16735,-11.24252 3.90494,-11.60466 3.00189,-0.62563 36.018,-3.04983 36.3955,-2.67232 0.19902,0.19902 -3.46686,11.33747 -8.1464,24.7521 l -8.50826,24.39026 -12.81,0.21685 -12.81,0.21686 0.47015,4.11865 c 0.25859,2.26527 4.35253,49.16858 9.09765,104.22958 4.74512,55.06101 8.84017,101.97323 9.10011,104.24937 l 0.47263,4.13844 9.00845,0 c 4.95464,0 8.98384,0.26605 8.95378,0.59121 -0.03,0.32516 -1.1941,4.13844 -2.58674,8.47396 l -2.53209,7.88274 -222.00616,0.19845 -222.006167,0.19845 -2.546042,-7.68706 z m 99.355629,-39.41513 c -0.0164,-28.23066 -0.0997,-29.93937 -1.62302,-33.30462 -3.47755,-7.6824 -9.22301,-11.38316 -17.67241,-11.38316 -6.27985,0 -10.15165,1.61749 -14.34607,5.99323 -4.93053,5.14369 -4.96667,5.42358 -4.96667,38.47216 l 0,29.97977 19.31274,0 19.31274,0 -0.0173,-29.75738 3e-5,0 z m 289.16018,-0.39414 -0.24009,-30.15151 -2.27522,-4.10571 c -6.39504,-11.54007 -21.63393,-13.8052 -30.85308,-4.58607 -5.71798,5.71799 -5.89131,6.89393 -5.89131,39.96906 l 0,29.02575 19.7499,0 19.7499,0 -0.2401,-30.15152 z M 166.88719,606.76138 c 0,-10.05485 -0.23906,-12.6984 -1.31269,-14.51592 -2.25353,-3.81491 -6.95693,-4.99642 -11.18539,-2.8098 -3.51559,1.81798 -4.0557,4.14029 -4.0557,17.43826 l 0,12.18117 8.27689,0 8.27689,0 0,-12.29371 z m 288.50864,-0.77346 0,-13.06718 -2.30419,-2.30418 c -2.68408,-2.68408 -7.19611,-3.13403 -10.21608,-1.01876 -3.28946,2.30403 -4.0335,5.62477 -4.0335,18.00198 l 0,11.45531 8.27688,0 8.27689,0 0,-13.06717 z"
     id="path4681"
     inkscape:connector-curvature="0"
     transform="matrix(0.80000122,0,0,0.80000122,-3.906256e-4,0)" /><path
     style="fill:#808285;fill-opacity:1"
     d="m 219.84332,672.46072 c -3.57443,-41.29575 -6.48748,-75.88132 -6.47344,-76.85681 0.0252,-1.75284 0.15365,-1.77362 10.95953,-1.77362 l 10.934,0 0.51366,-5.71499 c 0.28251,-3.14325 0.72394,-7.5773 0.98095,-9.85344 l 0.4673,-4.13844 13.21661,0 13.21661,0 0.51362,6.8974 c 0.28249,3.79358 0.71035,8.22762 0.9508,9.85344 l 0.43718,2.95603 11.6705,0 c 9.0017,0 11.76278,-0.24049 12.07406,-1.05166 0.22195,-0.57841 0.66027,-5.01246 0.97402,-9.85343 l 0.57047,-8.80178 13.23663,0 13.23663,0 0.42115,2.16775 c 0.23164,1.19227 0.65673,5.62632 0.94465,9.85344 l 0.52349,7.68568 12.03269,0 12.03269,0 0.5007,-5.32085 c 0.27538,-2.92648 0.70626,-7.36052 0.9575,-9.85344 l 0.45681,-4.53258 13.23004,0 13.23005,0 0.51361,6.8974 c 0.28249,3.79358 0.71035,8.22762 0.9508,9.85344 l 0.43718,2.95603 11.409,0 11.409,0 -0.45632,3.35017 c -0.44189,3.2444 -13.04096,147.63967 -13.04096,149.45985 0,0.62452 -2.67804,0.9036 -8.67102,0.9036 l -8.67103,0 0,-46.72322 0,-46.72323 -2.95603,-5.02455 c -6.1762,-10.49809 -17.76793,-20.90963 -29.4332,-26.43654 -17.17851,-8.13903 -38.93222,-8.35663 -56.12423,-0.5614 -13.71722,6.21968 -25.73489,17.43457 -31.99659,29.8592 -1.64773,3.26949 -1.67257,4.00394 -1.67257,49.46425 l 0,46.14549 -8.50378,0 -8.50378,0 -6.49898,-75.08319 z"
     id="path4683"
     inkscape:connector-curvature="0"
     transform="matrix(0.80000122,0,0,0.80000122,-3.906256e-4,0)" /><path
     style="fill:#2776bb;fill-opacity:1"
     d="m 286.64943,444.75993 -28.17973,-56.39935 -8.27689,0.2342 c -4.55229,0.12882 -19.362,0.27102 -32.91048,0.31602 -26.84719,0.0892 -28.20199,0.005 -36.07337,-2.25085 -5.83469,-1.67188 -13.32616,-4.74459 -15.04447,-6.17067 -2.37343,-1.96977 -2.7486,-6.95634 -0.72316,-9.61184 1.24489,-1.63213 6.68166,-4.42462 13.68777,-7.03045 9.72255,-3.61616 11.93553,-3.78892 48.53396,-3.78892 l 30.51281,0 27.14441,-56.7558 27.14442,-56.7558 9.20734,0 9.20735,0 -0.22214,0.88681 c -1.59729,6.37664 -26.27053,111.14957 -26.27053,111.55569 0,0.42332 0.88296,0.62069 3.64577,0.81495 2.00517,0.14098 20.84987,1.5011 41.87711,3.02249 21.02723,1.52138 40.19717,2.87666 42.59987,3.01172 l 4.36853,0.24556 0.60375,-1.53479 c 0.33206,-0.84414 4.38283,-11.24536 9.0017,-23.11383 l 8.39795,-21.57903 6.82932,0 c 3.75612,0 6.82858,0.13302 6.8277,0.29561 -7.9e-4,0.16258 -0.79706,9.87314 -1.76929,21.57902 -0.97222,11.70589 -1.76963,21.94854 -1.77201,22.76144 l -0.004,1.47802 3.05456,0.007 c 2.43453,0.005 3.37296,0.18681 4.62309,0.89484 4.24048,2.40168 4.49255,8.45133 0.47345,11.36275 -1.3757,0.99655 -1.91385,1.13735 -4.3674,1.14264 -1.5391,0.003 -3.01576,0.14415 -3.28146,0.31295 -0.37428,0.23778 0.0297,5.43038 1.79348,23.05101 l 2.2766,22.74407 -6.92136,0 -6.92136,0 -9.41567,-22.88097 -9.41567,-22.88096 -2.01024,0.23343 c -2.85058,0.33101 -88.96916,8.08397 -89.80435,8.08477 -0.37936,3.7e-4 -0.68974,0.22375 -0.68974,0.4964 0,0.40958 28.33635,109.75393 29.00693,111.93199 0.19813,0.64353 -0.41657,0.68974 -9.17607,0.68974 l -9.38842,0 -28.17973,-56.39936 z"
     id="path4694"
     inkscape:connector-curvature="0"
     transform="matrix(0.80000122,0,0,0.80000122,-3.906256e-4,0)" /></svg>